<svg version="1.1" id="Layer_1" xmlns="http://www.w3.org/2000/svg" xmlns:xlink="http://www.w3.org/1999/xlink" x="0px" y="0px"
	 width="100%" viewBox="0 0 1024 672" enable-background="new 0 0 1024 672" xml:space="preserve">
<path fill="#000000" opacity="1.000000" stroke="none" 
	d="
M226.321106,436.375854 
	C221.126678,437.128296 216.365265,437.827667 211.039291,438.609955 
	C214.699234,442.857147 219.722992,444.204559 224.068466,446.590363 
	C231.096283,450.448883 237.789276,451.478302 245.772766,447.813843 
	C268.434479,437.411987 287.919647,423.645844 300.114502,401.243896 
	C316.352020,371.415558 306.252533,337.050537 276.637787,320.253967 
	C270.462860,316.751709 263.979950,313.970306 257.372894,311.577698 
	C258.185059,308.795105 259.870483,309.069305 261.262268,309.046906 
	C292.349152,308.547241 318.170135,319.946106 337.993439,343.937897 
	C346.490326,354.221527 348.147858,366.315979 344.915741,379.292694 
	C337.504791,409.047180 319.809723,431.768250 296.700165,450.923492 
	C279.904785,464.845062 260.657562,474.087921 240.157700,481.043030 
	C237.348831,481.996033 234.749161,482.152771 231.895813,481.303894 
	C201.891739,472.377716 176.879013,455.642609 155.694550,432.851624 
	C139.603790,415.540588 127.772430,395.609863 119.142273,373.695770 
	C115.289680,363.913086 113.239288,353.595795 110.269051,343.551331 
	C109.838501,342.095337 109.188248,340.343994 110.879250,338.693024 
	C113.429451,339.852295 113.817741,342.557648 114.910538,344.613281 
	C128.500305,370.176331 147.601532,390.005066 174.849335,400.786438 
	C194.092239,408.400421 213.690735,409.585938 233.105453,400.772949 
	C233.257095,400.704132 233.408539,400.632996 233.553070,400.550629 
	C240.977692,396.318909 248.101868,391.414886 248.560318,382.024048 
	C249.029495,372.413605 242.345337,366.585449 235.061005,361.870697 
	C224.300705,354.906219 213.230804,348.426971 203.094299,340.520996 
	C174.538589,318.248993 175.844559,281.701324 206.483719,261.965302 
	C229.974426,246.833878 254.645889,246.338837 279.696228,258.616089 
	C288.061279,262.715851 296.009552,267.698273 304.907166,270.686279 
	C311.092651,272.763489 316.735901,271.694519 319.028046,268.021423 
	C322.019257,263.228119 320.808319,255.911285 315.807068,251.727982 
	C307.017334,244.375717 296.473724,240.675964 285.422272,238.546005 
	C261.817230,233.996552 238.967926,236.605377 217.259308,247.068863 
	C190.263962,260.080505 172.386902,281.212982 163.952942,309.846344 
	C161.251068,319.019196 160.563126,328.844421 162.555222,338.520599 
	C162.789780,339.659912 163.210205,340.799103 162.214111,341.806396 
	C161.020218,342.401001 160.284668,341.672546 159.745728,340.813599 
	C151.813202,328.170959 145.213882,315.121429 143.802338,299.811859 
	C142.743073,288.323090 146.262772,278.318207 152.232544,269.129974 
	C177.278900,230.580582 213.375732,211.649704 258.921051,209.636963 
	C282.151154,208.610367 303.950165,213.503098 324.146545,224.967834 
	C334.477020,230.832062 345.088593,236.976700 347.877533,249.843338 
	C351.366974,265.941559 351.059570,281.595886 337.349579,293.516846 
	C328.818848,300.934387 318.695068,303.487396 307.498657,300.694427 
	C299.829376,298.781250 292.837341,295.320801 285.973633,291.489044 
	C276.523193,286.213257 267.110046,280.822021 256.009399,279.610626 
	C249.660095,278.917694 243.678238,279.927856 238.206467,283.141144 
	C227.206512,289.600830 226.338394,302.155945 236.139404,312.373322 
	C240.458984,316.876404 246.026886,319.680878 251.202133,323.006622 
	C261.272919,329.478485 271.998322,335.013977 280.471008,343.751862 
	C299.691101,363.573517 299.894623,390.858978 280.804321,410.896942 
	C266.099518,426.331726 247.373245,433.378357 226.321106,436.375854 
M206.945129,299.589294 
	C209.803772,299.350525 214.372498,299.866852 213.277420,295.660492 
	C211.659439,289.445709 210.482239,283.377716 210.880615,276.986359 
	C210.944656,275.959106 210.554932,274.957672 209.433075,274.614532 
	C208.297470,274.267151 207.525894,274.898682 206.980179,275.831207 
	C204.808273,279.542572 201.823334,282.754211 200.774384,287.148560 
	C199.314423,293.264862 200.467789,296.165222 206.945129,299.589294 
M237.088348,341.106384 
	C241.551437,340.800903 244.808929,338.253845 243.950317,335.397369 
	C242.996582,332.224487 240.601105,329.844452 237.301453,329.504486 
	C235.208801,329.288910 232.308395,329.669830 231.441666,332.221771 
	C230.333145,335.485596 232.276901,337.873535 234.771194,339.784515 
	C235.290375,340.182281 235.901474,340.460052 237.088348,341.106384 
z"/>
<path fill="#000000" opacity="1.000000" stroke="none" 
	d="
M230.296555,388.789368 
	C234.922775,390.513153 231.656113,391.746948 230.298233,392.589874 
	C223.262131,396.957764 215.607666,399.764008 207.308334,400.175812 
	C186.099075,401.228088 168.430511,392.516418 152.629456,379.421783 
	C126.772560,357.993622 110.928055,330.413513 104.160530,297.698456 
	C100.767052,281.293915 100.100487,264.567169 103.334732,248.073593 
	C105.520622,236.926315 113.637398,229.756912 122.988258,223.993973 
	C133.786514,217.338989 145.736115,213.723892 157.980835,211.112289 
	C174.362534,207.618317 191.009613,207.347061 207.678497,207.947906 
	C209.601898,208.017242 211.726715,207.628220 213.370544,209.280304 
	C213.454575,211.639847 211.488922,211.701355 210.033707,212.218536 
	C197.062988,216.828247 185.035828,223.194748 174.193039,231.686569 
	C171.854660,233.517944 169.225220,234.322815 166.510864,235.090393 
	C148.517395,240.178711 137.100845,253.244873 135.347473,271.825653 
	C131.583511,311.713409 145.745850,344.175323 176.766907,369.329620 
	C188.844589,379.123169 202.159988,386.485413 217.916351,388.338287 
	C221.867447,388.802948 225.891373,388.648132 230.296555,388.789368 
z"/>
<path fill="#000000" opacity="1.000000" stroke="none" 
	d="
M416.565613,302.362122 
	C405.221100,303.961090 402.233887,318.544434 403.705231,328.079529 
	C404.857758,335.548523 407.125916,342.533508 415.952789,344.436615 
	C422.846436,345.922882 428.010498,343.493561 431.215790,337.210144 
	C433.115692,333.485748 444.454590,331.256958 447.602661,333.996185 
	C448.928436,335.149841 448.791809,336.611664 448.478088,338.138397 
	C446.213287,349.160187 439.734161,356.655853 428.802124,359.067230 
	C404.421051,364.445221 388.244019,351.896484 385.974426,326.815857 
	C385.329742,319.691711 386.247406,312.521912 389.330750,305.817017 
	C397.205627,288.692657 420.712311,281.773865 436.627808,291.980194 
	C443.003418,296.068787 446.782288,301.936127 448.121918,309.373596 
	C448.718903,312.687958 447.565582,314.519897 443.919464,314.313782 
	C441.926208,314.201111 439.914917,314.178070 437.923889,314.304810 
	C434.572266,314.518158 432.569427,313.509125 431.125824,310.024292 
	C428.618195,303.970764 423.579468,301.413239 416.565613,302.362122 
z"/>
<path fill="#000000" opacity="1.000000" stroke="none" 
	d="
M620.348755,361.052551 
	C611.704956,359.794525 604.375244,357.090027 600.057373,349.303772 
	C599.573853,348.431763 598.998474,347.558380 598.761292,346.611603 
	C597.943054,343.345978 595.785095,339.582458 599.562256,337.102142 
	C603.277100,334.662689 610.983215,337.144684 612.922791,340.792755 
	C616.315186,347.172913 623.653381,349.898682 630.342224,347.083527 
	C633.187561,345.885986 635.528625,343.999786 635.874573,340.575409 
	C636.223267,337.123688 634.388367,334.967896 631.602600,333.304138 
	C628.838684,331.653442 625.862549,330.705963 622.720276,330.130524 
	C618.616028,329.378876 614.587646,328.350830 610.768799,326.602692 
	C601.477600,322.349548 597.685852,315.695496 598.708069,305.372772 
	C599.501343,297.360962 605.605225,291.110260 614.832703,289.283844 
	C625.087891,287.254028 635.105286,287.074432 643.558899,294.712219 
	C646.869202,297.703064 648.908508,301.505920 649.964905,305.806396 
	C650.778137,309.117401 649.420471,310.999390 645.958191,311.087891 
	C641.025513,311.213928 636.355286,311.898834 633.570496,305.647736 
	C631.287659,300.523529 620.562988,299.463074 616.121643,302.964996 
	C612.215393,306.044983 612.650391,311.132935 617.252747,313.617065 
	C621.530029,315.925781 626.366882,316.737366 630.990234,318.107483 
	C633.700867,318.910828 636.497986,319.514648 639.092773,320.599182 
	C647.296570,324.028076 651.736389,329.995880 651.346313,339.209961 
	C650.961670,348.294952 646.563477,354.601898 638.429871,358.347809 
	C632.841492,360.921478 626.840820,361.223999 620.348755,361.052551 
z"/>
<path fill="#000000" opacity="1.000000" stroke="none" 
	d="
M588.925537,351.860779 
	C580.366455,360.432373 568.667847,362.960052 557.884644,358.343445 
	C547.172363,353.757141 543.998596,344.775757 543.281128,333.774689 
	C541.789185,310.897675 564.645020,300.411072 581.155640,308.894623 
	C591.682678,314.303680 593.961670,324.012207 593.895386,333.550110 
	C593.873840,336.653778 591.732117,337.261017 589.086914,337.235260 
	C580.924316,337.155731 572.760803,337.127350 564.597839,337.147369 
	C562.826233,337.151703 560.653931,336.690857 559.690979,338.728607 
	C558.801575,340.610779 560.106445,342.288879 561.057739,343.813812 
	C564.111938,348.709991 572.407349,349.818939 576.285706,345.207214 
	C580.233948,340.512360 584.967590,341.870850 589.593567,342.121674 
	C592.361389,342.271729 593.164368,344.324646 591.891541,346.844940 
	C591.070374,348.470978 590.076477,350.009766 588.925537,351.860779 
M560.837708,326.354675 
	C565.277710,327.106720 569.748169,326.834076 574.203003,326.642944 
	C576.452393,326.546448 578.120056,325.668976 577.225525,322.854492 
	C576.072693,319.227234 571.032837,317.042328 565.783936,318.328003 
	C561.995850,319.255890 559.122253,321.267181 560.837708,326.354675 
z"/>
<path fill="#000000" opacity="1.000000" stroke="none" 
	d="
M503.929047,335.610657 
	C502.530090,347.102234 497.994659,355.967773 486.513763,359.186859 
	C468.863647,364.135742 452.338013,353.267883 452.723328,335.515869 
	C452.820282,331.049286 452.251587,326.565186 453.843750,322.190033 
	C458.681702,308.895813 468.701355,304.441223 483.922913,306.140930 
	C494.775848,307.352783 503.521149,318.200562 504.075165,330.184662 
	C504.151733,331.840912 504.019409,333.506775 503.929047,335.610657 
M471.013000,343.380371 
	C477.209595,349.431244 485.230011,347.432007 487.261017,339.135406 
	C488.369904,334.605499 488.268921,329.916260 487.152863,325.330902 
	C485.994446,320.571472 482.578491,318.449677 478.017700,318.438049 
	C473.536316,318.426636 470.579376,320.974854 469.344543,325.292603 
	C467.643311,331.241180 467.968353,337.083832 471.013000,343.380371 
z"/>
<path fill="#000000" opacity="1.000000" stroke="none" 
	d="
M804.153442,348.800720 
	C806.972961,348.857910 809.583557,348.536499 810.877686,346.482849 
	C814.257690,341.119141 819.372864,342.834503 823.958130,343.047943 
	C827.364136,343.206543 827.107422,345.580109 825.951355,348.151062 
	C821.437256,358.190002 808.867126,363.668274 797.630859,360.386902 
	C783.757324,356.335327 776.797974,342.534546 780.420959,326.258545 
	C782.688904,316.070038 789.749451,309.327728 799.667297,307.879669 
	C810.780396,306.257080 819.969727,310.051422 824.584717,318.372894 
	C827.135559,322.972534 828.052368,328.031799 828.184387,333.274323 
	C828.273743,336.818817 826.864136,338.454956 823.170837,338.372742 
	C815.843323,338.209686 808.509705,338.206879 801.180542,338.293915 
	C799.032104,338.319427 796.022461,337.372894 795.449097,340.696594 
	C794.905884,343.845062 796.672913,346.152161 799.472656,347.485931 
	C800.803345,348.119843 802.321289,348.360504 804.153442,348.800720 
M812.598450,325.523010 
	C810.230347,318.966522 802.042664,317.040375 797.473572,322.049744 
	C795.817932,323.864990 795.236267,326.585693 798.150146,327.119598 
	C802.838684,327.978638 807.822510,329.111816 812.598450,325.523010 
z"/>
<path fill="#000000" opacity="1.000000" stroke="none" 
	d="
M698.139099,308.817261 
	C713.619751,303.111450 725.035889,310.792236 725.255920,326.757935 
	C725.381958,335.905396 725.168823,345.058838 725.380676,354.203247 
	C725.478516,358.426941 723.809204,360.001068 719.734070,359.451294 
	C718.424561,359.274658 717.069763,359.293884 715.746704,359.384491 
	C712.128601,359.632233 710.654846,358.052887 710.731262,354.393463 
	C710.884094,347.077271 710.829773,339.754761 710.733459,332.436523 
	C710.703064,330.128540 710.432373,327.792572 709.978394,325.528198 
	C709.190308,321.596954 706.531677,319.543823 702.630127,319.260101 
	C698.412964,318.953369 695.734802,321.140381 694.262146,324.970825 
	C693.161804,327.832764 693.182678,330.832214 693.173523,333.831573 
	C693.152100,340.818115 693.095154,347.804565 693.086609,354.791107 
	C693.082520,358.094360 691.665100,359.474152 688.194214,359.456055 
	C678.694031,359.406616 678.698730,359.530090 678.712097,349.883820 
	C678.727966,338.406067 678.645508,326.927002 678.813782,315.451569 
	C678.849792,312.996338 677.364685,309.388824 680.597534,308.334167 
	C684.115295,307.186584 688.440857,306.462189 691.592590,308.963684 
	C694.109436,310.961212 695.726318,310.149628 698.139099,308.817261 
z"/>
<path fill="#000000" opacity="1.000000" stroke="none" 
	d="
M937.923523,321.223145 
	C940.126404,327.473083 941.634766,333.574921 944.470398,339.296600 
	C947.124329,338.144409 947.120544,335.967133 947.743164,334.170105 
	C950.248169,326.940308 952.626709,319.663849 955.289734,312.492981 
	C956.574219,309.034271 965.817017,307.488586 968.344482,310.123627 
	C969.591492,311.423676 969.113464,312.897919 968.573669,314.328918 
	C962.173767,331.295624 955.981812,348.345215 949.272583,365.188782 
	C946.180603,372.951355 938.487610,376.782593 930.216736,376.023590 
	C926.416931,375.674896 924.607239,374.092224 924.748657,369.980347 
	C924.879028,366.190125 925.811401,364.149261 930.106567,364.007080 
	C937.181763,363.772766 938.939575,360.901093 936.350464,354.252594 
	C931.280640,341.233459 926.029297,328.285095 920.941956,315.272705 
	C918.859375,309.945770 919.499451,309.050507 924.951050,308.847992 
	C933.089539,308.545654 933.089966,308.545502 936.017395,316.187927 
	C936.612610,317.741760 937.203247,319.297333 937.923523,321.223145 
z"/>
<path fill="#000000" opacity="1.000000" stroke="none" 
	d="
M761.146484,345.020508 
	C763.454285,340.162354 771.614685,338.010162 775.590698,340.919159 
	C777.548584,342.351624 776.804565,344.142487 776.301758,345.886536 
	C773.059509,357.132080 761.248352,363.196991 748.859009,360.503754 
	C735.506165,357.601044 729.782410,344.908966 729.982178,332.817688 
	C730.302490,313.423065 746.345154,302.375427 764.375122,308.808258 
	C770.428467,310.967987 774.199036,315.474182 775.945007,321.614746 
	C776.943237,325.125763 775.659058,327.073181 771.822266,327.092682 
	C767.663391,327.113800 763.636902,327.576721 761.363220,322.537537 
	C759.954041,319.414368 756.495361,318.701965 753.122192,319.215363 
	C749.826843,319.716949 747.707031,321.857666 746.743103,324.871368 
	C744.991333,330.348206 744.507935,335.957794 746.210449,341.565918 
	C748.598511,349.432556 754.893250,351.026794 761.146484,345.020508 
z"/>
<path fill="#000000" opacity="1.000000" stroke="none" 
	d="
M892.994446,304.732056 
	C893.165344,297.239288 896.401917,294.820007 903.457275,296.333618 
	C906.895203,297.071136 907.431458,299.469788 907.227661,302.346466 
	C906.935791,306.466919 907.997681,309.107269 912.915955,308.921234 
	C917.255127,308.757080 917.232544,312.092102 917.298340,315.223633 
	C917.368286,318.552155 915.897949,320.294037 912.515564,320.020996 
	C908.245300,319.676300 907.017639,321.823517 907.160583,325.739349 
	C907.360901,331.223389 907.289856,336.720062 907.224976,342.210052 
	C907.180176,346.003571 908.642334,348.359833 912.700928,348.293304 
	C917.541992,348.214050 917.167480,351.525085 917.283386,354.800903 
	C917.408081,358.324768 916.007019,359.874207 912.424622,360.192871 
	C899.192444,361.369965 893.964172,357.127228 893.161194,343.767365 
	C892.792419,337.631744 892.993713,331.460114 892.995422,325.304810 
	C892.996216,322.566071 892.426025,320.475494 889.222412,319.821808 
	C885.955933,319.155365 886.128723,316.347260 886.116638,313.833008 
	C886.104431,311.284851 886.788269,309.122864 889.787903,308.818939 
	C892.078674,308.586823 892.949219,307.282135 892.994446,304.732056 
z"/>
<path fill="#000000" opacity="1.000000" stroke="none" 
	d="
M521.387085,306.916992 
	C523.822998,307.148315 523.990112,309.282318 525.480957,310.507965 
	C528.849182,308.683472 532.176270,306.485504 536.279297,306.232910 
	C539.553040,306.031372 541.468384,307.015656 541.235229,310.645569 
	C541.150024,311.972382 541.128601,313.319244 541.253174,314.640472 
	C541.610657,318.431458 540.501892,320.259003 536.152588,320.610046 
	C528.013306,321.266968 525.414795,324.362183 525.194946,332.558441 
	C525.002991,339.716187 525.038269,346.883667 525.147827,354.044189 
	C525.202515,357.620483 523.791260,359.064423 520.148132,359.181244 
	C509.715515,359.515717 509.734741,359.627716 509.723816,349.137054 
	C509.711121,336.977539 509.941010,324.808167 509.503601,312.663330 
	C509.326538,307.746704 511.102356,306.418152 515.478455,306.840210 
	C517.293518,307.015320 519.139648,306.867523 521.387085,306.916992 
z"/>
<path fill="#000000" opacity="1.000000" stroke="none" 
	d="
M832.945068,345.971924 
	C832.940247,335.979126 832.911926,326.480804 832.940674,316.982605 
	C832.964050,309.269958 839.032227,305.562531 845.866211,309.561890 
	C848.397278,311.043121 849.969055,310.987976 852.066833,309.580139 
	C852.609436,309.216034 853.260559,308.957062 853.898804,308.801697 
	C856.764038,308.104248 860.248352,306.360840 862.259155,309.256470 
	C864.375610,312.304260 863.643066,316.358551 862.826721,319.911957 
	C862.402710,321.757263 860.303650,321.730011 858.612244,321.888428 
	C850.250427,322.671570 847.619751,325.402039 847.396301,333.907745 
	C847.221252,340.569458 847.162720,347.242676 847.349731,353.902435 
	C847.465210,358.014038 846.497742,359.967896 841.749268,359.742310 
	C833.020752,359.327606 833.005249,359.616150 832.944580,350.965759 
	C832.934021,349.466034 832.945129,347.966187 832.945068,345.971924 
z"/>
<path fill="#000000" opacity="1.000000" stroke="none" 
	d="
M670.611267,358.002655 
	C666.909607,360.670258 663.052734,359.508972 659.365051,359.366302 
	C657.377991,359.289429 656.926758,357.425446 656.928589,355.616425 
	C656.943176,341.171783 656.909180,326.726990 656.977783,312.282623 
	C657.001587,307.261139 660.770081,307.702423 664.119385,307.726746 
	C667.451965,307.750916 671.182617,307.287903 671.180786,312.359894 
	C671.175293,327.456970 671.699280,342.558502 670.611267,358.002655 
z"/>
<path fill="#000000" opacity="1.000000" stroke="none" 
	d="
M882.031372,352.754669 
	C881.798218,355.619659 882.604614,358.787292 879.525330,359.622711 
	C876.192017,360.527039 872.553101,360.638489 869.324463,358.909637 
	C867.647217,358.011505 867.840393,356.067871 867.836121,354.405548 
	C867.801270,340.932983 867.923889,327.457825 867.681396,313.989166 
	C867.586182,308.697144 870.618591,308.624329 874.457581,308.680939 
	C878.489624,308.740448 882.132935,308.424561 882.027283,314.369904 
	C881.802734,327.004608 882.005737,339.646881 882.031372,352.754669 
z"/>
<path fill="#000000" opacity="1.000000" stroke="none" 
	d="
M655.667480,392.707825 
	C655.690552,390.433685 655.744385,388.599945 655.716614,386.767456 
	C655.679688,384.336456 656.729553,382.974274 659.260864,383.001495 
	C661.730591,383.028046 662.960266,384.424927 662.983948,386.765015 
	C663.059753,394.254913 663.066589,401.745850 663.045837,409.236206 
	C663.041016,410.981720 662.589844,412.624725 660.565186,413.077362 
	C658.227661,413.599915 656.292664,412.883057 654.867065,410.918335 
	C651.858948,406.772827 649.556946,402.100464 645.427979,398.072357 
	C643.993896,401.973999 644.479675,405.626160 644.363831,409.184235 
	C644.296326,411.259430 643.829895,412.885559 641.434326,412.987244 
	C638.936523,413.093201 637.818054,411.711334 637.805359,409.281677 
	C637.767883,402.115540 637.691711,394.949524 637.678467,387.783386 
	C637.675171,386.000549 637.298035,383.889069 639.711914,383.247345 
	C642.035950,382.629547 643.936157,383.340973 645.321594,385.427887 
	C647.441101,388.620514 649.590759,391.796509 651.841980,394.896576 
	C652.765625,396.168579 653.187012,397.957581 655.086731,398.510712 
	C656.099182,396.766632 655.406677,394.900665 655.667480,392.707825 
z"/>
<path fill="#000000" opacity="1.000000" stroke="none" 
	d="
M719.829407,389.351013 
	C720.256042,392.636566 718.989685,394.871399 716.956177,396.784149 
	C716.022949,397.661987 715.371643,398.599091 716.597046,399.712036 
	C717.575195,400.600342 718.323914,400.209625 719.056213,399.260559 
	C720.399719,397.519440 722.285339,397.409698 723.970276,398.377869 
	C726.016602,399.553680 725.555969,401.795563 724.678833,403.259460 
	C722.592346,406.741821 724.775818,409.147400 726.537476,411.338043 
	C726.088623,412.093933 725.937561,412.605682 725.755920,412.616791 
	C720.246826,412.954437 714.666809,413.922638 709.238770,413.380829 
	C700.916016,412.550049 698.191650,405.644318 703.141418,399.085907 
	C704.250488,397.616302 704.636536,396.455597 704.072754,394.596588 
	C702.245117,388.570343 703.779175,385.180237 708.743408,383.508453 
	C713.748413,381.822937 717.313538,383.594330 719.829407,389.351013 
M712.465332,407.256226 
	C714.118164,403.616608 711.203003,403.513336 708.797546,402.266937 
	C707.705261,405.765930 708.501709,407.402802 712.465332,407.256226 
z"/>
<path fill="#000000" opacity="1.000000" stroke="none" 
	d="
M788.651367,412.126770 
	C787.237488,403.534851 788.084229,395.235138 787.843323,386.958374 
	C787.770813,384.467438 789.232605,383.402771 791.546448,383.217102 
	C795.885010,382.868988 800.236145,383.068756 804.392517,384.240967 
	C809.873047,385.786560 812.980774,392.958313 809.408508,397.556702 
	C806.155884,401.743713 807.312134,404.592499 809.515686,408.127136 
	C810.268799,409.335175 811.289307,410.613983 810.518372,412.503632 
	C807.063477,414.120087 804.311829,413.397644 802.425781,409.795685 
	C801.809937,408.619385 801.201111,407.438721 800.554321,406.279419 
	C799.744324,404.827820 798.980774,403.083252 796.914368,403.512970 
	C794.626099,403.988800 795.239136,406.028961 795.148621,407.597168 
	C794.829895,413.120209 794.182495,413.639252 788.651367,412.126770 
M802.440857,391.465973 
	C799.903931,389.943481 797.292908,388.819977 795.415771,392.199738 
	C794.827454,393.259186 794.865601,394.892761 795.876038,395.947052 
	C797.054749,397.176910 798.686279,396.939819 800.073486,396.476562 
	C802.088135,395.803772 803.643066,394.606232 802.440857,391.465973 
z"/>
<path fill="#000000" opacity="1.000000" stroke="none" 
	d="
M613.557495,411.663635 
	C606.954834,405.888428 605.090820,397.128784 608.621155,389.752167 
	C611.107666,384.556549 617.525696,381.693909 623.881104,382.945740 
	C629.944214,384.139984 634.511841,389.704102 635.081787,396.589935 
	C636.151367,409.511292 625.934448,416.871094 613.557495,411.663635 
M626.813110,403.108307 
	C628.026917,400.438293 628.109619,397.639618 627.452881,394.864227 
	C626.467102,390.698151 622.578003,388.259125 618.875427,389.518555 
	C615.391968,390.703400 614.295654,393.661041 614.287720,396.975342 
	C614.278931,400.631775 614.389832,404.627747 618.324036,406.364319 
	C621.409607,407.726288 624.527649,407.134613 626.813110,403.108307 
z"/>
<path fill="#000000" opacity="1.000000" stroke="none" 
	d="
M518.888306,404.151184 
	C514.961853,411.845184 509.676544,414.592377 502.632202,412.939331 
	C496.229492,411.436829 492.782837,406.120880 492.577911,398.248413 
	C492.412811,391.905609 494.187927,386.743317 500.081757,383.723114 
	C505.214508,381.092926 510.036041,382.131287 514.512085,385.484253 
	C517.626282,387.817047 519.441467,390.834747 519.352173,394.808624 
	C519.285156,397.789734 519.128113,400.768829 518.888306,404.151184 
M508.668091,389.593079 
	C505.074005,388.580750 501.987701,388.997406 500.440948,392.900635 
	C498.571655,397.617706 499.701080,403.847473 502.648529,405.850433 
	C506.043121,408.157196 510.778137,406.773621 511.992401,402.757263 
	C513.385559,398.149170 513.449524,393.556091 508.668091,389.593079 
z"/>
<path fill="#000000" opacity="1.000000" stroke="none" 
	d="
M771.567749,392.110840 
	C771.679626,394.854370 773.442200,394.849396 775.137756,394.906525 
	C776.965881,394.968079 778.800049,394.924377 780.622925,395.051025 
	C782.506592,395.181854 783.789429,396.113403 783.798279,398.165649 
	C783.807312,400.269257 782.496704,401.075867 780.580505,401.135651 
	C778.419006,401.203033 776.256226,401.224823 774.094666,401.289001 
	C772.294128,401.342407 771.366028,402.231537 771.362976,404.094635 
	C771.359924,405.980469 772.364441,406.816345 774.120483,406.899750 
	C776.778015,407.026001 779.442261,407.042572 782.094543,407.233398 
	C783.929688,407.365417 785.302490,408.152832 785.194702,410.329498 
	C785.091064,412.421417 783.804077,413.257660 781.908203,413.275787 
	C777.250977,413.320343 772.593079,413.281525 767.935608,413.306702 
	C765.127930,413.321869 764.116699,411.679260 764.097046,409.174652 
	C764.039551,401.855255 764.046692,394.535278 763.971680,387.216125 
	C763.944153,384.534302 765.223022,383.125610 767.838013,383.095032 
	C772.327637,383.042511 776.819519,383.073090 781.308777,383.159332 
	C783.622559,383.203796 785.144531,384.314880 785.064758,386.828522 
	C784.978882,389.536896 782.957642,389.682983 780.881104,390.055298 
	C777.795898,390.608368 774.174377,388.306458 771.567749,392.110840 
z"/>
<path fill="#000000" opacity="1.000000" stroke="none" 
	d="
M749.209961,407.535461 
	C751.478455,407.562592 753.570557,407.309662 753.912476,405.131409 
	C754.301514,402.653412 751.931335,402.471466 750.242676,401.932343 
	C747.549561,401.072571 744.809265,400.317474 742.470154,398.646790 
	C739.075073,396.222015 737.961792,392.914368 739.297241,389.014862 
	C740.654236,385.052490 745.514404,382.571625 750.828430,382.807648 
	C755.595825,383.019379 759.034424,385.189880 760.949951,389.629578 
	C761.450562,390.789734 761.661865,392.136810 760.422668,392.721741 
	C758.560791,393.600494 756.476990,393.712585 754.850098,392.121490 
	C753.395508,390.698761 752.036316,389.218597 749.787476,389.401428 
	C748.385132,389.515411 747.074951,390.071014 746.793701,391.577301 
	C746.529846,392.990387 747.716064,393.596436 748.831665,394.011536 
	C751.472229,394.994080 754.237366,395.704987 756.762085,396.920471 
	C760.348389,398.647095 762.561584,401.613342 761.876221,405.731293 
	C761.180969,409.908875 758.412354,412.547485 754.179688,413.149017 
	C748.969910,413.889404 743.750610,414.010071 739.977295,409.389862 
	C738.669861,407.788940 736.878967,405.671448 739.180969,403.762085 
	C741.042542,402.217987 743.346252,402.692352 744.896606,404.691833 
	C745.964783,406.069427 747.149353,407.108093 749.209961,407.535461 
z"/>
<path fill="#000000" opacity="1.000000" stroke="none" 
	d="
M667.242798,403.031372 
	C669.643127,402.727173 671.111389,403.598022 672.353760,405.149780 
	C673.692749,406.822144 675.560669,407.566406 677.666931,407.315582 
	C679.150757,407.138885 680.798645,406.748871 680.952576,404.850311 
	C681.087036,403.192780 679.707703,402.666779 678.418884,402.218842 
	C676.060791,401.399170 673.623413,400.760742 671.352722,399.747314 
	C667.712280,398.122498 665.392090,395.332977 665.728149,391.162964 
	C666.077393,386.828186 668.803711,384.291565 672.882141,383.189209 
	C678.214050,381.748138 684.559631,383.776062 686.702209,387.661896 
	C687.471680,389.057465 688.668579,390.776276 687.066101,392.210968 
	C685.389221,393.712280 683.376709,393.501129 681.610657,392.092346 
	C680.836365,391.474731 680.260498,390.590240 679.449524,390.040802 
	C677.958496,389.030487 676.306519,388.988861 674.717285,389.849152 
	C673.969238,390.254120 673.360718,390.916290 673.605652,391.871033 
	C674.051147,393.607697 675.678650,393.904449 677.031616,394.445496 
	C679.496582,395.431274 682.180115,396.002563 684.457825,397.299377 
	C690.537476,400.760773 690.421875,408.319824 684.395203,411.870300 
	C679.443298,414.787598 670.617920,413.806366 667.248474,409.691315 
	C665.697083,407.796661 663.180603,405.503967 667.242798,403.031372 
z"/>
<path fill="#000000" opacity="1.000000" stroke="none" 
	d="
M481.712219,389.547485 
	C478.987946,388.066681 476.436737,388.132690 475.683502,390.901550 
	C474.999237,393.416870 477.859528,393.891632 479.643890,394.448334 
	C482.182129,395.240143 484.784424,395.781860 487.014221,397.346313 
	C491.342285,400.382904 492.092407,405.332184 488.835724,409.476898 
	C484.471344,415.031372 472.410797,414.663940 468.513031,408.749817 
	C467.391296,407.047791 465.679199,404.776886 468.185455,403.087921 
	C470.075104,401.814453 472.342682,402.126434 473.795929,404.417633 
	C474.524872,405.566833 475.459503,406.540985 476.898956,406.704956 
	C479.188080,406.965637 482.083893,407.719879 483.035522,405.006439 
	C484.095886,401.982971 480.932068,401.881042 479.081146,401.118744 
	C476.781250,400.171539 474.324524,399.553894 472.125397,398.424377 
	C467.701111,396.151947 466.436401,391.210083 468.972412,386.973419 
	C471.105835,383.409363 476.908691,381.182831 481.790802,382.290436 
	C486.402283,383.336639 489.410736,386.014099 489.923676,391.162933 
	C486.683685,393.188080 484.205048,392.325165 481.712219,389.547485 
z"/>
<path fill="#000000" opacity="1.000000" stroke="none" 
	d="
M905.331421,399.855865 
	C901.031189,397.321899 899.602112,393.859863 900.935547,389.493958 
	C902.092102,385.706909 907.566101,382.753418 912.439575,383.225922 
	C916.831238,383.651794 920.447388,385.417236 922.082153,389.917358 
	C922.514343,391.107025 922.597046,392.339355 921.246765,392.898529 
	C919.673523,393.550018 918.012146,393.645325 916.530212,392.496185 
	C915.358276,391.587585 914.307983,390.420898 912.997192,389.817169 
	C911.180664,388.980560 909.157654,389.273407 908.276733,391.227325 
	C907.260315,393.481720 909.369507,394.018097 910.870361,394.579651 
	C913.199646,395.451202 915.690491,395.943115 917.932007,396.985077 
	C921.329834,398.564545 923.507263,401.172424 923.206726,405.213257 
	C922.898621,409.354889 920.565796,411.845154 916.709290,413.116486 
	C910.825684,415.056091 903.890259,413.496307 901.292358,409.419037 
	C900.266174,407.808624 898.763123,405.743378 900.813354,404.079163 
	C902.699829,402.547729 904.883301,402.942352 906.493774,404.985046 
	C907.324097,406.038208 908.142761,407.161987 909.525024,407.439819 
	C911.660156,407.869080 914.299438,408.405457 915.248962,405.973999 
	C916.286621,403.316650 913.549805,402.872986 911.772156,402.179779 
	C909.763550,401.396484 907.702515,400.747345 905.331421,399.855865 
z"/>
<path fill="#000000" opacity="1.000000" stroke="none" 
	d="
M567.196228,407.681824 
	C563.338684,412.922760 557.119141,414.744049 551.014709,412.771576 
	C545.909790,411.122009 543.864502,407.601379 543.859863,400.540588 
	C543.856934,396.042511 543.826050,391.544220 543.774597,387.046417 
	C543.745972,384.542664 544.480530,382.800476 547.414673,382.855713 
	C550.256165,382.909210 551.133545,384.611389 551.140808,387.102112 
	C551.154785,391.933655 551.228271,396.766418 551.142273,401.596283 
	C551.085693,404.776367 552.268494,406.679932 555.625122,406.956543 
	C558.861572,407.223206 560.608459,405.752991 561.224609,402.620209 
	C562.109680,398.120789 561.204590,393.661072 561.131592,389.181946 
	C561.088562,386.545349 560.234863,382.948212 564.752258,382.999268 
	C569.212524,383.049683 569.253052,386.289795 568.667542,389.413574 
	C567.557434,395.336365 569.162170,401.440186 567.196228,407.681824 
z"/>
<path fill="#000000" opacity="1.000000" stroke="none" 
	d="
M877.827698,404.911438 
	C877.827820,399.112244 877.875732,393.798767 877.816345,388.486542 
	C877.780090,385.242767 879.000122,383.522125 882.510986,383.656799 
	C886.656677,383.815796 890.812073,383.737762 894.963196,383.727844 
	C897.119446,383.722687 898.481018,384.631805 898.630493,386.870880 
	C898.796265,389.353088 897.100708,389.964081 895.108643,390.049683 
	C892.787598,390.149323 890.460022,390.083649 888.137146,390.153473 
	C886.665283,390.197693 885.508362,390.767548 885.475464,392.464783 
	C885.443054,394.133118 886.531982,394.830841 888.007507,394.932922 
	C889.826660,395.058807 891.658508,394.996704 893.479004,395.110016 
	C895.449951,395.232635 897.116699,395.822418 897.168213,398.241669 
	C897.222290,400.780304 895.524170,401.186218 893.519836,401.217163 
	C891.693726,401.245392 889.866699,401.259521 888.041870,401.327637 
	C886.262695,401.394073 885.300537,402.276215 885.322571,404.141785 
	C885.344604,406.001587 886.378174,406.885864 888.099487,406.970673 
	C890.419434,407.084991 892.746826,407.037689 895.068787,407.122742 
	C897.032837,407.194672 898.836304,407.703735 898.892395,410.100922 
	C898.955566,412.803497 897.007080,413.315247 894.841431,413.339813 
	C891.852966,413.373749 888.863647,413.328705 885.874817,413.342590 
	C877.937317,413.379456 877.937317,413.384796 877.827698,404.911438 
z"/>
<path fill="#000000" opacity="1.000000" stroke="none" 
	d="
M850.488403,394.782959 
	C852.372070,386.988983 855.140930,384.324158 862.114075,383.251007 
	C867.117615,382.481018 872.037720,384.636383 874.445862,388.949646 
	C875.418396,390.691589 877.342896,393.011749 874.757263,394.618958 
	C872.680908,395.909607 870.230896,395.429413 868.752625,392.930054 
	C867.365723,390.585144 865.307007,389.146820 862.568054,389.664062 
	C859.521973,390.239349 858.517639,392.695679 857.951416,395.503448 
	C857.413391,398.171417 857.221191,400.726532 858.153931,403.357300 
	C858.954834,405.616028 860.369019,407.087341 862.724060,407.436035 
	C865.040710,407.779022 867.111938,407.133820 868.215942,404.915192 
	C869.742493,401.847443 872.347229,401.126434 874.771912,402.880615 
	C877.431824,404.804993 875.187439,407.086884 873.880554,408.880737 
	C870.536316,413.471191 865.254456,415.099640 859.688721,413.445923 
	C854.355286,411.861237 850.185547,405.996948 850.002075,399.654205 
	C849.959167,398.172699 850.269958,396.680939 850.488403,394.782959 
z"/>
<path fill="#000000" opacity="1.000000" stroke="none" 
	d="
M820.383911,411.191620 
	C817.046021,402.329010 813.879700,393.779755 810.742981,385.310303 
	C816.181519,382.369385 817.892944,382.980530 819.602112,388.091522 
	C821.109619,392.599487 822.580505,397.119629 824.310364,402.371460 
	C827.594421,397.199646 828.333252,392.000458 830.309875,387.306183 
	C830.960876,385.760132 831.395264,384.230621 833.429260,383.824463 
	C837.007507,383.109955 838.678162,384.619232 837.503357,388.043091 
	C834.966003,395.438324 832.320190,402.800934 829.505981,410.094788 
	C827.880066,414.308807 824.497559,414.732422 820.383911,411.191620 
z"/>
<path fill="#000000" opacity="1.000000" stroke="none" 
	d="
M447.173096,400.989410 
	C447.182343,403.470764 447.202271,405.464325 447.192810,407.457733 
	C447.180847,409.984802 447.433563,412.778198 443.700104,412.780518 
	C439.711273,412.782990 439.985138,409.873352 439.995575,407.135040 
	C440.012634,402.650116 439.897705,398.164154 439.952759,393.680054 
	C439.989990,390.644531 438.910919,388.974976 435.592682,389.161621 
	C433.037842,389.305298 430.730072,388.670135 431.001312,385.427063 
	C431.259827,382.335724 433.790466,382.651276 435.931366,382.644287 
	C441.413208,382.626343 446.895203,382.649963 452.377075,382.674805 
	C454.419159,382.684052 456.012695,383.274292 456.007935,385.735046 
	C456.004120,387.727264 454.902069,389.189880 453.041840,389.000275 
	C446.867798,388.370911 446.789185,392.166565 447.159637,396.516052 
	C447.271973,397.835327 447.172913,399.172546 447.173096,400.989410 
z"/>
<path fill="#000000" opacity="1.000000" stroke="none" 
	d="
M586.193970,396.213928 
	C586.200989,400.841980 586.197754,405.000092 586.207703,409.158203 
	C586.213135,411.420532 585.569336,413.081055 582.885681,413.125458 
	C580.064087,413.172119 578.991821,411.579407 579.063538,409.041382 
	C579.203979,404.065735 579.947388,399.119995 579.307068,394.106567 
	C578.923340,391.101501 578.218994,388.986877 574.552612,389.264221 
	C572.252136,389.438202 570.056885,388.878265 570.053467,385.904602 
	C570.049805,382.740509 572.443726,382.787476 574.660217,382.795532 
	C580.314880,382.816010 585.969788,382.849640 591.623840,382.933594 
	C593.643005,382.963562 595.240295,383.604095 595.200989,386.077545 
	C595.162964,388.468811 593.649414,389.432922 591.616577,389.231293 
	C586.439087,388.717682 585.826904,391.769073 586.193970,396.213928 
z"/>
<path fill="#000000" opacity="1.000000" stroke="none" 
	d="
M522.805359,385.434387 
	C523.817017,382.506561 525.889282,382.501953 527.831299,383.117432 
	C530.095398,383.834961 529.640808,385.950439 529.589722,387.762756 
	C529.482300,391.575165 529.335876,395.388214 529.327026,399.201294 
	C529.309692,406.676056 529.344238,406.672974 536.616638,406.779999 
	C537.776611,406.797028 538.942139,406.795776 540.094055,406.912170 
	C541.862671,407.090820 542.753662,408.196381 542.761719,409.915070 
	C542.769775,411.629700 541.857910,412.938904 540.143860,412.980164 
	C535.177734,413.099823 530.194885,413.199432 525.241760,412.909668 
	C522.568237,412.753265 522.710205,410.288727 522.711182,408.277100 
	C522.714783,400.812378 522.732239,393.347656 522.805359,385.434387 
z"/>
<path fill="#000000" opacity="1.000000" stroke="none" 
	d="
M604.151978,408.618622 
	C604.084412,411.650940 602.990356,413.190491 600.196106,413.001038 
	C597.250305,412.801331 596.914429,410.757904 596.918701,408.409698 
	C596.931396,401.437012 596.919800,394.464203 596.885925,387.491547 
	C596.873169,384.868500 597.457947,382.851898 600.689697,382.928772 
	C603.987183,383.007263 604.266907,385.228943 604.252136,387.740204 
	C604.211975,394.546936 604.193420,401.353851 604.151978,408.618622 
z"/>
<path fill="#000000" opacity="1.000000" stroke="none" 
	d="
M421.919006,388.198059 
	C421.894989,385.116241 421.863617,382.592285 425.628967,382.668518 
	C429.364807,382.744141 429.245361,385.298462 429.232788,387.876770 
	C429.200409,394.516235 429.156830,401.155762 429.157837,407.795258 
	C429.158264,410.599670 428.504120,412.899902 425.091980,412.712494 
	C421.775421,412.530334 421.890625,410.005768 421.901306,407.595673 
	C421.929199,401.288330 421.915222,394.980835 421.919006,388.198059 
z"/>
<path fill="#000000" opacity="1.000000" stroke="none" 
	d="
M671.999268,295.942993 
	C670.147705,302.276154 664.653137,304.984772 660.355835,301.847046 
	C657.465698,299.736786 655.093994,297.022949 656.573364,292.979553 
	C657.872620,289.428345 660.742493,287.664337 664.349182,287.969299 
	C668.767090,288.342896 671.768127,290.690399 671.999268,295.942993 
z"/>
<path fill="#000000" opacity="1.000000" stroke="none" 
	d="
M840.619751,396.361786 
	C840.452026,393.083527 840.189697,390.267090 840.184021,387.450195 
	C840.179443,385.180481 841.192871,383.696472 843.800842,383.704254 
	C846.387817,383.712006 847.320007,385.008331 847.305847,387.430023 
	C847.262939,394.743042 847.259521,402.056427 847.280029,409.369537 
	C847.286621,411.722412 846.492310,413.195862 843.859863,413.199066 
	C841.134399,413.202393 840.561462,411.604553 840.600708,409.288544 
	C840.671082,405.134491 840.630371,400.978577 840.619751,396.361786 
z"/>
<path fill="#000000" opacity="1.000000" stroke="none" 
	d="
M881.146484,291.871368 
	C883.290161,295.373322 883.432556,298.592346 880.671875,301.242798 
	C878.482422,303.344788 875.782166,304.575500 872.522156,303.347534 
	C869.456177,302.192627 867.559875,300.227966 867.237366,296.862366 
	C866.929504,293.649109 868.530945,291.379944 871.050964,289.895142 
	C874.671509,287.761841 878.026550,288.646484 881.146484,291.871368 
z"/>
</svg>